PathFileType	4	(X/Y/Z)	/Users/itak/Documents/Research/Walk-IL/dataset/trc/00313_00010.trc
DataRate	CameraRate	NumFrames	NumMarkers	Units	OrigDataRate	OrigDataStartFrame	OrigNumFrames
100.000000	100.000000	4	53	mm	100.000000	193	517
Frame#	Time	RPSI			LPSI			L3			STRN			T10			C7			CLAV			RBAK			LBAK			LSHO			LUPA			LAEL			LAOL			LWTS			LWPS			LFRA			LIFD			LHPS			LHTS			RSHO			RUPA			RAEL			RAOL			RWTS			RWPS			RFRA			RIFD			RHTS			RHPS			RBHD			LFHD			RFHD			LBHD			LHIP			RHIP			RASI			LASI			LKNE			LTHI			LANK			LTIP			LTOE			LMT1			LMT5			LHEE			RKNE			RTHI			RANK			RTIP			RTOE			RMT1			RMT5			RHEE			
		X1	Y1	Z1	X2	Y2	Z2	X3	Y3	Z3	X4	Y4	Z4	X5	Y5	Z5	X6	Y6	Z6	X7	Y7	Z7	X8	Y8	Z8	X9	Y9	Z9	X10	Y10	Z10	X11	Y11	Z11	X12	Y12	Z12	X13	Y13	Z13	X14	Y14	Z14	X15	Y15	Z15	X16	Y16	Z16	X17	Y17	Z17	X18	Y18	Z18	X19	Y19	Z19	X20	Y20	Z20	X21	Y21	Z21	X22	Y22	Z22	X23	Y23	Z23	X24	Y24	Z24	X25	Y25	Z25	X26	Y26	Z26	X27	Y27	Z27	X28	Y28	Z28	X29	Y29	Z29	X30	Y30	Z30	X31	Y31	Z31	X32	Y32	Z32	X33	Y33	Z33	X34	Y34	Z34	X35	Y35	Z35	X36	Y36	Z36	X37	Y37	Z37	X38	Y38	Z38	X39	Y39	Z39	X40	Y40	Z40	X41	Y41	Z41	X42	Y42	Z42	X43	Y43	Z43	X44	Y44	Z44	X45	Y45	Z45	X46	Y46	Z46	X47	Y47	Z47	X48	Y48	Z48	X49	Y49	Z49	X50	Y50	Z50	X51	Y51	Z51	X52	Y52	Z52	X53	Y53	Z53	

194	1.93	-624.9501953125	961.7747802734375	-595.4052734375	-592.4310302734375	959.5278930664062	-766.5543823242188	-584.609130859375	1028.583374023438	-697.0249633789062	-323.4932250976562	1179.676879882812	-623.0687255859375	-577.5725708007812	1141.658081054688	-711.8659057617188	-507.1604919433594	1382.203491210938	-709.8968505859375	-372.0868835449219	1285.37890625	-645.8385009765625	-594.1964721679688	1247.877563476562	-664.091552734375	-484.5296325683594	1343.309448242188	-813.5107421875	-380.9981994628906	1341.228393554688	-827.3538818359375	-382.0675964355469	1220.021728515625	-902.3853149414062	-366.2799377441406	1021.079406738281	-902.7476196289062	-446.1808166503906	994.3213500976562	-872.6767578125	-202.0579528808594	921.259765625	-796.8486938476562	-212.4001312255859	861.8779907226562	-836.983154296875	-311.492919921875	942.011962890625	-883.8386840820312	-83.67463684082031	804.8806762695312	-716.701171875	-155.7205963134766	809.9768676757812	-795.3818969726562	-119.5384750366211	861.6285400390625	-777.561767578125	-512.4483032226562	1354.905151367188	-539.4862060546875	-555.5835571289062	1302.77734375	-485.6702575683594	-655.7296142578125	1056.83935546875	-463.6119079589844	-626.5037841796875	1041.52490234375	-552.23193359375	-625.5716552734375	811.427734375	-439.8214721679688	-703.2196044921875	833.7913208007812	-413.9407348632812	-667.0287475585938	991.4931030273438	-438.7530517578125	-689.5606079101562	635.0313720703125	-444.556884765625	-657.0656127929688	697.7428588867188	-411.7076721191406	-723.813720703125	721.8900756835938	-404.5885620117188	-505.5119323730469	1541.743774414062	-632.0892333984375	-294.7400817871094	1562.215942382812	-646.4609985351562	-342.4081726074219	1558.304809570312	-566.8082275390625	-430.0987243652344	1538.234375	-757.3861083984375	-517.54052734375	901.9747314453125	-852.693359375	-540.2931518554688	912.4194946289062	-477.7731018066406	-416.1266784667969	905.6093139648438	-535.5410766601562	-375.99267578125	893.8194580078125	-776.6741943359375	-599.8876953125	449.527587890625	-830.2891235351562	-552.85302734375	584.1826171875	-843.9818115234375	-903.3218383789062	104.0205230712891	-840.2996826171875	-756.2975463867188	275.7559509277344	-847.4005737304688	-722.9025268554688	36.8953971862793	-766.0958862304688	-791.6982421875	43.32719421386719	-728.5541381835938	-795.1394653320312	47.28796768188477	-842.8152465820312	-949.4410400390625	128.0736083984375	-785.1743774414062	-324.5801391601562	484.5943298339844	-507.8587646484375	-423.7916870117188	726.9222412109375	-468.8761901855469	-330.5597229003906	39.70599746704102	-560.9813842773438	-289.8179321289062	361.551513671875	-523.7649536132812	-130.7310943603516	52.34061431884766	-581.3942260742188	-180.3108978271484	44.42104721069336	-630.126708984375	-230.1653289794922	33.76303100585938	-524.0790405273438	-373.0185241699219	34.56150054931641	-617.8241577148438	
195	1.94	-614.88916015625	963.1167602539062	-591.9885864257812	-582.0185546875	960.6536865234375	-763.0753173828125	-574.5280151367188	1029.659790039062	-693.7554931640625	-314.4301452636719	1181.630859375	-618.6444702148438	-568.0298461914062	1142.5615234375	-708.6541137695312	-498.8518981933594	1383.323120117188	-706.27880859375	-363.5628051757812	1287.107421875	-641.6271362304688	-585.2993774414062	1248.502685546875	-660.7742309570312	-475.4143981933594	1344.739990234375	-809.8289794921875	-371.7403564453125	1343.230224609375	-822.9537963867188	-371.5829772949219	1222.223266601562	-898.0625	-355.2996215820312	1023.092590332031	-898.5540771484375	-435.4632568359375	996.6229858398438	-868.9329223632812	-193.6031036376953	917.954345703125	-792.5311279296875	-204.7064361572266	859.87890625	-834.8131713867188	-301.5978393554688	942.947021484375	-880.4267578125	-77.64212036132812	797.2855224609375	-715.3341064453125	-148.574951171875	806.1576538085938	-794.7216796875	-112.1304397583008	856.62109375	-774.3707275390625	-504.5523986816406	1355.892944335938	-535.865234375	-547.5308227539062	1303.467041015625	-482.1718139648438	-646.0860595703125	1056.970703125	-460.5207214355469	-616.4935302734375	1041.823974609375	-549.0137939453125	-615.6851806640625	811.53955078125	-436.7160949707031	-693.4274291992188	833.9628295898438	-411.0973205566406	-657.3590087890625	991.650146484375	-435.6758117675781	-680.3828735351562	635.31591796875	-442.3536682128906	-647.6414184570312	697.676025390625	-409.2098083496094	-714.371826171875	722.1140747070312	-402.12841796875	-498.2484130859375	1542.87646484375	-628.4385986328125	-287.4779663085938	1564.13916015625	-641.848388671875	-335.468017578125	1560.005126953125	-562.4100952148438	-422.2397155761719	1539.725708007812	-753.3922729492188	-506.8568115234375	903.0311279296875	-848.9216918945312	-530.4486694335938	913.9862060546875	-473.9323120117188	-406.1952209472656	907.1548461914062	-531.7132568359375	-365.6955261230469	894.95263671875	-772.6509399414062	-587.7612915039062	450.06689453125	-829.1189575195312	-541.3262329101562	584.9622802734375	-841.7296142578125	-898.2672729492188	110.2884902954102	-841.0850219726562	-747.7922973632812	279.404296875	-847.3964233398438	-722.407958984375	36.90176010131836	-766.2093505859375	-790.3432006835938	44.69083786010742	-728.6468505859375	-792.7681884765625	48.23597717285156	-843.4699096679688	-943.003173828125	136.4169158935547	-785.9129638671875	-316.6793823242188	484.353515625	-505.8446960449219	-414.1507873535156	727.7316284179688	-465.7562255859375	-330.0336303710938	40.0987548828125	-561.0390625	-283.1029357910156	360.8511047363281	-522.8469848632812	-129.5847625732422	49.67743301391602	-581.8759765625	-179.5449371337891	42.92569351196289	-630.569091796875	-229.6526947021484	33.51079559326172	-524.4268798828125	-372.6543273925781	35.08784484863281	-617.731689453125	
196	1.95	-604.8236083984375	964.5543212890625	-588.4266357421875	-571.69580078125	961.8984985351562	-759.462646484375	-564.5184326171875	1030.9638671875	-690.3370361328125	-305.3737487792969	1183.786499023438	-614.2219848632812	-558.4921875	1143.613525390625	-705.2942504882812	-490.6049499511719	1384.573608398438	-702.6040649414062	-355.0653991699219	1289.034423828125	-637.403564453125	-576.4044189453125	1249.249267578125	-657.3242797851562	-466.40673828125	1346.325805664062	-806.1065063476562	-362.6134338378906	1345.412719726562	-818.5294799804688	-361.0772094726562	1224.651000976562	-893.7109375	-344.2525634765625	1025.306884765625	-894.3392333984375	-424.6814575195312	999.1423950195312	-865.2548217773438	-185.4589996337891	914.3629760742188	-788.273193359375	-197.1684112548828	857.9521484375	-832.8528442382812	-291.7407836914062	943.9812622070312	-877.0592041015625	-72.30938720703125	789.1264038085938	-714.3429565429688	-141.9749603271484	802.0938110351562	-794.349365234375	-105.1936492919922	851.1620483398438	-771.3284301757812	-496.6063842773438	1357.046875	-532.1846313476562	-539.370361328125	1304.343383789062	-478.570556640625	-636.2626342773438	1057.273315429688	-457.2677917480469	-606.4005737304688	1042.32666015625	-545.672119140625	-605.2827758789062	811.8320922851562	-433.5078430175781	-683.128662109375	834.18994140625	-408.0765686035156	-647.4252319335938	991.9359130859375	-432.4474182128906	-670.3668212890625	635.6721801757812	-440.0561218261719	-637.4462890625	697.7232666015625	-406.59716796875	-704.194580078125	722.3489990234375	-399.508056640625	-490.9783325195312	1544.180541992188	-624.7634887695312	-280.1958923339844	1566.143920898438	-637.2335205078125	-328.4927673339844	1561.780029296875	-558.0045776367188	-414.3905029296875	1541.37939453125	-749.3797607421875	-496.3265380859375	904.3480224609375	-845.0951538085938	-520.6019897460938	915.51953125	-470.0104064941406	-396.3103637695312	908.7379760742188	-527.838134765625	-355.6343078613281	896.338134765625	-768.7349243164062	-574.6626586914062	450.4887084960938	-828.0592651367188	-529.2241821289062	585.7501220703125	-839.5205078125	-892.4161376953125	116.9635848999023	-841.7783203125	-738.3892211914062	283.1515197753906	-847.3854370117188	-721.9326782226562	36.84772491455078	-766.32763671875	-788.8095703125	46.15798187255859	-728.7031860351562	-790.1499633789062	49.35896301269531	-844.1495971679688	-935.5357666015625	145.190185546875	-786.511474609375	-309.4409484863281	483.85400390625	-503.9512329101562	-404.8035583496094	728.1543579101562	-462.5158081054688	-329.5568542480469	40.4464111328125	-561.1705932617188	-277.1091613769531	360.0048828125	-521.9067993164062	-128.6111297607422	47.39969253540039	-582.4475708007812	-178.8832244873047	41.68361282348633	-631.0899047851562	-229.2270812988281	33.45790100097656	-524.7955322265625	-372.3386535644531	35.48079299926758	-617.7245483398438	
197	1.96	-594.808837890625	966.0750122070312	-584.7418823242188	-561.5067749023438	963.2246704101562	-755.7352294921875	-554.5999755859375	1032.452514648438	-686.7496337890625	-296.3357238769531	1186.083862304688	-609.8389282226562	-548.9999389648438	1144.7734375	-701.7664794921875	-482.4362182617188	1385.909912109375	-698.87451171875	-346.5942993164062	1291.106079101562	-633.1895141601562	-567.5386962890625	1250.089599609375	-653.7368774414062	-457.5530090332031	1348.01171875	-802.3463745117188	-353.6586608886719	1347.720947265625	-814.1177368164062	-350.641845703125	1227.2314453125	-889.3475341796875	-333.1547546386719	1027.664428710938	-890.11474609375	-413.8364868164062	1001.80322265625	-861.6635131835938	-177.6498565673828	910.4964599609375	-784.117919921875	-189.7938842773438	856.0762939453125	-831.0912475585938	-281.9361572265625	945.0640258789062	-873.7348022460938	-67.73279571533203	780.4749145507812	-713.7374877929688	-135.8925476074219	797.8592529296875	-794.2554931640625	-98.75958251953125	845.2891235351562	-768.4490356445312	-488.6110229492188	1358.321044921875	-528.4481201171875	-531.1077270507812	1305.36474609375	-474.8676452636719	-626.2997436523438	1057.703857421875	-453.8396301269531	-596.276611328125	1042.994262695312	-542.2011108398438	-594.3762817382812	812.279296875	-430.1945495605469	-672.3436279296875	834.4255981445312	-404.8661193847656	-637.256103515625	992.3101196289062	-429.0569763183594	-659.4425659179688	636.0497436523438	-437.6285095214844	-626.448486328125	697.8745727539062	-403.8456726074219	-693.2673950195312	722.53955078125	-396.7029113769531	-483.7116088867188	1545.62646484375	-621.0744018554688	-272.9007568359375	1568.18701171875	-632.6398315429688	-321.4906005859375	1563.59033203125	-553.6104125976562	-406.5664978027344	1543.16064453125	-745.3642578125	-485.9728088378906	905.848388671875	-841.2041625976562	-510.810546875	917.0206298828125	-466.0366516113281	-386.5210266113281	910.3126220703125	-523.9285888671875	-345.8458251953125	897.9366455078125	-764.9403686523438	-560.5878295898438	450.7572326660156	-827.0902709960938	-516.547119140625	586.4944458007812	-837.3536376953125	-885.647216796875	124.0302352905273	-842.411865234375	-728.00244140625	286.92138671875	-847.3505859375	-721.44482421875	36.69672393798828	-766.4634399414062	-787.02099609375	47.80220413208008	-728.7396850585938	-787.2488403320312	50.70473861694336	-844.8194580078125	-926.9651489257812	154.3439025878906	-787.0137329101562	-302.8516235351562	483.1482543945312	-502.1785278320312	-395.8071899414062	728.222900390625	-459.2114562988281	-329.1359558105469	40.74006271362305	-561.3480834960938	-271.8246459960938	359.0484924316406	-520.916259765625	-127.8065872192383	45.51751708984375	-583.0523681640625	-178.3254547119141	40.67089462280273	-631.6381225585938	-228.8885040283203	33.53244018554688	-525.15087890625	-372.0714416503906	35.7654914855957	-617.7837524414062	
